<?xml version="1.0" encoding="UTF-8"?>
<svg xmlns="http://www.w3.org/2000/svg" xmlns:xlink="http://www.w3.org/1999/xlink" viewBox="0 0 852.86 206.84">
  <defs>
    <style>.a{stroke-miterlimit:10;stroke-width:20px;stroke:url(#a);}.b{font-size:109.5px;font-family:Arial-BoldMT, Arial;font-weight:700;}.c{letter-spacing:-0.02em;}.d{letter-spacing:-0.01em;}.e{letter-spacing:-0.02em;}.f{letter-spacing:0.01em;}.g{letter-spacing:-0.02em;}.h{letter-spacing:-0.02em;}.i{letter-spacing:-0.02em;}.j{fill:#fff;}</style>
    <linearGradient id="a" x1="195.32" y1="103.42" x2="372.33" y2="103.42" gradientUnits="userSpaceOnUse">
      <stop offset="0" stop-color="#1b1464"></stop>
      <stop offset="0.75" stop-color="#f03"></stop>
      <stop offset="1" stop-color="#ff0"></stop>
    </linearGradient>
  </defs>
  <circle class="a" cx="283.82" cy="103.42" r="78.51"></circle>
  <path d="M0,141.46V64H15.77V128.3H55v13.16Z"></path>
  <path d="M77.3,102.14,63.72,99.69Q66,91.49,71.6,87.54T88.22,83.6q10,0,14.92,2.37a14.87,14.87,0,0,1,6.9,6q2,3.65,2,13.4l-.16,17.47a60.72,60.72,0,0,0,.72,11,31.9,31.9,0,0,0,2.69,7.59H100.48c-.39-1-.87-2.47-1.44-4.43-.25-.88-.43-1.47-.53-1.75a27.12,27.12,0,0,1-8.21,5.59A23.54,23.54,0,0,1,81,142.74q-8.74,0-13.77-4.75a15.74,15.74,0,0,1-5-12,16.19,16.19,0,0,1,2.29-8.56,15,15,0,0,1,6.42-5.75,50.45,50.45,0,0,1,11.91-3.49q10.5-2,14.54-3.67V103q0-4.31-2.13-6.15c-1.42-1.22-4.1-1.84-8-1.84a10.72,10.72,0,0,0-6.24,1.58A10.92,10.92,0,0,0,77.3,102.14Zm20,12.15c-1.91.63-5,1.4-9.11,2.29s-6.87,1.75-8.15,2.61a6.24,6.24,0,0,0-2.93,5.27,7.33,7.33,0,0,0,2.35,5.44,8.2,8.2,0,0,0,6,2.29,13,13,0,0,0,7.73-2.67,9.4,9.4,0,0,0,3.57-5,29.69,29.69,0,0,0,.58-7.3Z"></path>
  <path d="M126.16,141.46V63.35h15V91.48q6.92-7.87,16.41-7.88a22.05,22.05,0,0,1,17.1,7.49q6.77,7.47,6.76,21.49,0,14.49-6.9,22.32t-16.75,7.84a20.73,20.73,0,0,1-9.57-2.43,22.79,22.79,0,0,1-8.12-7.16v8.31ZM141,111.94q0,8.79,2.77,13,3.89,6,10.33,6a10.61,10.61,0,0,0,8.45-4.24q3.48-4.23,3.49-13.34,0-9.7-3.52-14a11.11,11.11,0,0,0-9-4.29,11.28,11.28,0,0,0-8.95,4.19Q141,103.41,141,111.94Z"></path>
  <text class="b" transform="translate(383.99 142)">
    <tspan class="c">S</tspan>
    <tspan class="d" x="70.92" y="0">p</tspan>
    <tspan class="e" x="136.31" y="0">o</tspan>
    <tspan class="f" x="201.04" y="0">t</tspan>
    <tspan class="g" x="238.47" y="0">w</tspan>
    <tspan class="h" x="321.26" y="0">e</tspan>
    <tspan class="i" x="380.09" y="0">l</tspan>
    <tspan x="408.87" y="0">d</tspan>
  </text>
  <path class="j" d="M254.32,138.42v-70H240.19v70Zm27.64,0V109.2h2.87a23.06,23.06,0,0,1,7.11.79,10.67,10.67,0,0,1,4.25,2.91,96.94,96.94,0,0,1,7.45,10.29l10.22,15.23h16.9l-8.54-13.66a80.08,80.08,0,0,0-8.05-11.36,32.91,32.91,0,0,0-7.57-5.87q9.22-1.34,13.85-6.47a18.67,18.67,0,0,0,4.63-13A20.21,20.21,0,0,0,322,77a16.07,16.07,0,0,0-8.15-6.71q-5.08-1.89-16.3-1.89H267.83v70Zm0-58.16h11q8.6,0,10.32.24a8.64,8.64,0,0,1,5.32,2.75,8.36,8.36,0,0,1,1.89,5.7,9.18,9.18,0,0,1-1.43,5.26,7.61,7.61,0,0,1-4,3q-2.53.87-12.7.86H282Z"></path>
</svg>
