<?xml version="1.0" encoding="utf-8"?>
<!-- Generator: Adobe Illustrator 15.1.0, SVG Export Plug-In . SVG Version: 6.00 Build 0)  -->
<!DOCTYPE svg PUBLIC "-//W3C//DTD SVG 1.1//EN" "http://www.w3.org/Graphics/SVG/1.1/DTD/svg11.dtd">
<svg version="1.1" id="Layer_1" xmlns="http://www.w3.org/2000/svg" xmlns:xlink="http://www.w3.org/1999/xlink" x="0px" y="0px"
	 width="239.773px" height="67.691px" viewBox="0 0 239.773 67.691" enable-background="new 0 0 239.773 67.691"
	 xml:space="preserve">
<g>
	<polygon fill="#92278F" points="42.039,24.321 42.039,38.905 54.664,31.609 	"/>
	<path fill="#C3C5C5" d="M-0.03,63.186l18.363-10.598c-5.132-1.715-8.822-5.529-8.887-12.125V18.646h9.44v21.348
		c0.146,4.342,2.414,7.082,6.855,7.082c1.255,0,2.329-0.228,3.239-0.64l0.992-0.572c1.654-1.202,2.527-3.238,2.617-5.87V18.876
		h0.021L-0.03,0.033V63.186L-0.03,63.186z"/>
	<path fill="#92278F" d="M66.775,42.052v5.224c0,1.465,0.975,2.386,2.648,2.386c1.685,0,2.647-0.921,2.647-2.386v-5.224h-1.611
		v5.149c0,0.702-0.388,1.12-1.036,1.12c-0.649,0-1.026-0.418-1.026-1.12v-5.149H66.775L66.775,42.052z M73.714,49.484h1.497v-3.873
		c0-0.502-0.01-1.046-0.021-1.435h0.021c0.073,0.44,0.167,0.807,0.376,1.246l1.989,4.063h1.633v-7.433h-1.486v3.622
		c0,0.502,0,0.994,0.021,1.486h-0.021c-0.083-0.513-0.188-0.858-0.366-1.235l-1.874-3.873h-1.77L73.714,49.484L73.714,49.484z
		 M82.528,49.484v-7.433h-1.623v7.433H82.528L82.528,49.484z M85.617,49.484h1.968l1.968-7.433h-1.706L86.8,46.866
		c-0.094,0.472-0.147,0.796-0.178,1.13H86.58c-0.031-0.334-0.083-0.659-0.179-1.13l-1.047-4.814h-1.707L85.617,49.484L85.617,49.484
		z M92.307,48.259V46.28h2.481v-1.214h-2.481v-1.79h2.638v-1.226h-4.261v7.433h4.334v-1.226L92.307,48.259L92.307,48.259z
		 M99.98,49.484h1.738l-1.34-3.234c0.764-0.304,1.191-0.995,1.191-1.968c0-1.371-0.753-2.229-2.479-2.229h-2.648v7.433h1.623v-2.941
		h0.816L99.98,49.484L99.98,49.484z M98.065,45.485v-2.313h0.785c0.722,0,1.017,0.376,1.017,1.109c0,0.753-0.305,1.204-1.017,1.204
		H98.065L98.065,45.485z M105.184,49.662c1.632,0,2.574-0.963,2.574-2.313c0-1.109-0.45-1.77-1.56-2.146l-1.067-0.354
		c-0.586-0.199-0.858-0.523-0.858-0.975c0-0.471,0.346-0.785,0.891-0.785c0.639,0,1.131,0.408,1.34,1.33l1.317-0.66
		c-0.303-1.34-1.256-1.884-2.596-1.884c-1.465,0-2.502,0.807-2.502,2.167c0,1.047,0.492,1.812,1.55,2.146l1.067,0.334
		c0.617,0.188,0.815,0.481,0.815,0.983c0,0.514-0.335,0.859-0.909,0.859c-0.754,0-1.185-0.461-1.425-1.435l-1.424,0.628
		C102.745,48.909,103.676,49.662,105.184,49.662L105.184,49.662z M110.736,49.484v-7.433h-1.623v7.433H110.736L110.736,49.484z
		 M117.064,42.052h-5.202v1.329h1.789v6.104h1.623v-6.104h1.79V42.052L117.064,42.052z M119.907,49.484h1.634v-2.68l2.02-4.753
		h-1.705l-0.953,2.606c-0.084,0.262-0.125,0.492-0.156,0.764h-0.031c-0.031-0.271-0.084-0.502-0.157-0.764l-0.974-2.606h-1.706
		l2.03,4.753L119.907,49.484L119.907,49.484z M130.04,49.662c1.842,0,2.952-1.12,2.952-3.894c0-2.784-1.11-3.904-2.952-3.904
		c-1.854,0-2.962,1.12-2.962,3.904C127.078,48.542,128.187,49.662,130.04,49.662L130.04,49.662z M130.04,48.385
		c-0.816,0-1.288-0.607-1.288-2.616c0-2.03,0.472-2.617,1.288-2.617c0.806,0,1.267,0.587,1.267,2.617
		C131.306,47.777,130.845,48.385,130.04,48.385L130.04,48.385z M138.66,43.298v-1.246H134.4v7.433h1.622v-3.151h2.472v-1.224h-2.472
		v-1.812H138.66L138.66,43.298z M143.59,49.484h1.853l0.765-4.647c0.042-0.313,0.053-0.628,0.063-0.911h0.054
		c0.011,0.283,0.021,0.597,0.063,0.911l0.764,4.647h1.863l1.318-7.433h-1.58l-0.67,4.68c-0.031,0.292-0.054,0.606-0.063,0.91h-0.031
		c-0.031-0.283-0.053-0.565-0.095-0.869l-0.796-4.722h-1.602l-0.784,4.722c-0.042,0.303-0.074,0.586-0.095,0.869h-0.043
		c-0.011-0.304-0.03-0.618-0.063-0.91l-0.67-4.68h-1.57L143.59,49.484L143.59,49.484z M153.172,48.259V46.28h2.479v-1.214h-2.479
		v-1.79h2.638v-1.226h-4.26v7.433h4.333v-1.226L153.172,48.259L153.172,48.259z M159.549,49.662c1.633,0,2.574-0.963,2.574-2.313
		c0-1.109-0.449-1.77-1.56-2.146l-1.067-0.354c-0.586-0.199-0.857-0.523-0.857-0.975c0-0.471,0.345-0.785,0.889-0.785
		c0.64,0,1.132,0.408,1.341,1.33l1.318-0.66c-0.304-1.34-1.257-1.884-2.596-1.884c-1.466,0-2.502,0.807-2.502,2.167
		c0,1.047,0.492,1.812,1.55,2.146l1.066,0.334c0.618,0.188,0.815,0.481,0.815,0.983c0,0.514-0.335,0.859-0.91,0.859
		c-0.754,0-1.183-0.461-1.424-1.435l-1.423,0.628C157.11,48.909,158.042,49.662,159.549,49.662L159.549,49.662z M168.252,42.052
		h-5.202v1.329h1.79v6.104h1.622v-6.104h1.79V42.052L168.252,42.052z M175.957,45.58c0.772-0.199,1.183-0.796,1.183-1.549
		c0-1.152-0.723-1.979-2.271-1.979h-2.711v7.433h2.805c1.55,0,2.313-0.869,2.313-2.104C177.275,46.406,176.804,45.768,175.957,45.58
		L175.957,45.58z M174.511,43.172c0.66,0,0.942,0.388,0.942,0.963c0,0.629-0.263,1.026-0.933,1.026h-0.743v-1.989H174.511
		L174.511,43.172z M174.595,48.364h-0.816v-2.156h0.827c0.659,0,0.975,0.387,0.975,1.088
		C175.58,47.945,175.286,48.364,174.595,48.364L174.595,48.364z M181.285,49.662c1.843,0,2.951-1.12,2.951-3.894
		c0-2.784-1.108-3.904-2.951-3.904c-1.854,0-2.962,1.12-2.962,3.904C178.323,48.542,179.432,49.662,181.285,49.662L181.285,49.662z
		 M181.285,48.385c-0.816,0-1.287-0.607-1.287-2.616c0-2.03,0.471-2.617,1.287-2.617c0.806,0,1.267,0.587,1.267,2.617
		C182.551,47.777,182.09,48.385,181.285,48.385L181.285,48.385z M191.004,42.052h-1.622v3.024h-2.114v-3.024h-1.623v7.433h1.623
		v-3.151h2.114v3.151h1.622V42.052L191.004,42.052z M194.331,48.259V46.28h2.479v-1.214h-2.479v-1.79h2.639v-1.226h-4.261v7.433
		h4.333v-1.226L194.331,48.259L194.331,48.259z M198.466,49.484h1.382v-4.407c0-0.45,0-0.994-0.031-1.413h0.041
		c0.012,0.199,0.074,0.565,0.147,0.9l1.172,4.919h1.287l1.142-4.919c0.063-0.335,0.114-0.628,0.146-0.911h0.031
		c-0.021,0.438-0.031,0.984-0.031,1.423v4.407h1.443v-7.433h-2.22l-0.963,4.197c-0.083,0.377-0.136,0.732-0.156,1.004h-0.03
		c-0.021-0.271-0.074-0.617-0.157-0.994l-0.984-4.208h-2.219V49.484L198.466,49.484z M208.519,49.484v-7.433h-1.623v7.433H208.519
		L208.519,49.484z M214.212,49.484h1.634l-2.083-7.433h-1.979l-2.094,7.433h1.634l0.419-1.729h2.052L214.212,49.484L214.212,49.484z
		 M212.025,46.594l0.523-2.188c0.084-0.345,0.157-0.638,0.209-1.068h0.021c0.063,0.431,0.137,0.724,0.209,1.068l0.524,2.188H212.025
		L212.025,46.594z"/>
	<path fill="#92278F" d="M70.407,35.796h1.737l-1.339-3.233c0.764-0.305,1.193-0.994,1.193-1.969c0-1.37-0.754-2.229-2.48-2.229
		h-2.647v7.432h1.622v-2.94h0.816L70.407,35.796L70.407,35.796z M68.491,31.798v-2.313h0.784c0.724,0,1.017,0.377,1.017,1.108
		c0,0.755-0.305,1.204-1.017,1.204H68.491L68.491,31.798z M75.02,34.572v-1.979h2.48v-1.214h-2.48v-1.79h2.639v-1.225h-4.261v7.432
		h4.333v-1.224H75.02L75.02,34.572z M81.396,35.974c1.633,0,2.574-0.964,2.574-2.313c0-1.11-0.449-1.769-1.559-2.146l-1.067-0.356
		c-0.586-0.199-0.859-0.523-0.859-0.974c0-0.472,0.347-0.785,0.891-0.785c0.638,0,1.13,0.408,1.34,1.329l1.318-0.66
		c-0.305-1.34-1.257-1.884-2.597-1.884c-1.465,0-2.501,0.806-2.501,2.167c0,1.047,0.492,1.811,1.549,2.146l1.068,0.335
		c0.618,0.188,0.816,0.482,0.816,0.984c0,0.513-0.335,0.857-0.911,0.857c-0.754,0-1.184-0.46-1.423-1.434l-1.424,0.628
		C78.958,35.219,79.889,35.974,81.396,35.974L81.396,35.974z M86.934,34.572v-1.979h2.48v-1.214h-2.48v-1.79h2.638v-1.225h-4.26
		v7.432h4.333v-1.224H86.934L86.934,34.572z M95.196,35.796h1.634l-2.083-7.432h-1.979l-2.093,7.432h1.633l0.419-1.727h2.051
		L95.196,35.796L95.196,35.796z M93.008,32.907l0.523-2.188c0.084-0.346,0.156-0.639,0.209-1.067h0.021
		c0.063,0.429,0.136,0.722,0.209,1.067l0.523,2.188H93.008L93.008,32.907z M101.555,35.796h1.738l-1.34-3.233
		c0.764-0.305,1.192-0.994,1.192-1.969c0-1.37-0.754-2.229-2.479-2.229h-2.648v7.432h1.622v-2.94h0.816L101.555,35.796
		L101.555,35.796z M99.64,31.798v-2.313h0.785c0.723,0,1.016,0.377,1.016,1.108c0,0.755-0.304,1.204-1.016,1.204H99.64L99.64,31.798
		z M107.146,35.974c1.561,0,2.575-0.933,2.7-2.69l-1.601-0.346c-0.074,1.267-0.45,1.727-1.089,1.727
		c-0.807,0-1.246-0.606-1.246-2.596s0.472-2.585,1.234-2.585c0.682,0,1.025,0.377,1.078,1.716l1.611-0.293
		c-0.041-1.821-1.058-2.722-2.68-2.722c-1.778,0-2.909,1.005-2.909,3.895C104.247,35.01,105.262,35.974,107.146,35.974
		L107.146,35.974z M116.59,28.364h-1.622v3.025h-2.114v-3.025h-1.623v7.432h1.623v-3.149h2.114v3.149h1.622V28.364L116.59,28.364z
		 M123.676,35.974c1.56,0,2.575-0.933,2.701-2.69l-1.603-0.346c-0.072,1.267-0.449,1.727-1.089,1.727
		c-0.806,0-1.245-0.606-1.245-2.596s0.472-2.585,1.234-2.585c0.681,0,1.026,0.377,1.078,1.716l1.612-0.293
		c-0.042-1.821-1.059-2.722-2.681-2.722c-1.778,0-2.909,1.005-2.909,3.895C120.778,35.01,121.792,35.974,123.676,35.974
		L123.676,35.974z M129.384,34.572v-1.979h2.479v-1.214h-2.479v-1.79h2.638v-1.225h-4.26v7.432h4.333v-1.224H129.384L129.384,34.572
		z M133.52,35.796h1.496v-3.873c0-0.503-0.01-1.047-0.021-1.434h0.021c0.073,0.438,0.168,0.806,0.377,1.245l1.989,4.062h1.633
		v-7.432h-1.486v3.622c0,0.502,0,0.995,0.021,1.487h-0.021c-0.084-0.514-0.188-0.858-0.365-1.235l-1.874-3.873h-1.77V35.796
		L133.52,35.796z M145.355,28.364h-5.202v1.33h1.79v6.102h1.622v-6.102h1.79V28.364L145.355,28.364z M150.024,35.796h1.738
		l-1.34-3.233c0.764-0.305,1.192-0.994,1.192-1.969c0-1.37-0.754-2.229-2.48-2.229h-2.648v7.432h1.622v-2.94h0.817L150.024,35.796
		L150.024,35.796z M148.108,31.798v-2.313h0.786c0.723,0,1.016,0.377,1.016,1.108c0,0.755-0.304,1.204-1.016,1.204H148.108
		L148.108,31.798z M154.636,34.572v-1.979h2.481v-1.214h-2.481v-1.79h2.639v-1.225h-4.261v7.432h4.334v-1.224H154.636
		L154.636,34.572z"/>
	<path fill="#92278F" d="M66.869,22.108h1.497v-3.873c0-0.503-0.011-1.047-0.021-1.436h0.021c0.073,0.439,0.167,0.807,0.377,1.246
		l1.987,4.063h1.633v-7.433h-1.485v3.622c0,0.502,0,0.995,0.021,1.486h-0.021c-0.083-0.513-0.188-0.858-0.366-1.235l-1.874-3.873
		h-1.769V22.108L66.869,22.108z M75.686,20.883v-1.978h2.48v-1.214h-2.48v-1.79h2.639v-1.226h-4.261v7.433h4.333v-1.226H75.686
		L75.686,20.883z M80.743,22.108h1.852l0.765-4.647c0.042-0.313,0.053-0.628,0.063-0.911h0.053c0.01,0.283,0.021,0.598,0.063,0.911
		l0.764,4.647h1.862l1.318-7.433h-1.581l-0.67,4.68c-0.03,0.293-0.052,0.606-0.063,0.911h-0.03
		c-0.032-0.283-0.053-0.565-0.095-0.869l-0.795-4.722h-1.602l-0.785,4.722c-0.042,0.303-0.073,0.586-0.095,0.869h-0.042
		c-0.011-0.305-0.032-0.618-0.063-0.911l-0.67-4.68h-1.569L80.743,22.108L80.743,22.108z M96.129,14.677h-5.202v1.329h1.79v6.104
		h1.622v-6.104h1.79V14.677L96.129,14.677z M98.883,20.883v-1.978h2.479v-1.214h-2.479v-1.79h2.638v-1.226h-4.26v7.433h4.333v-1.226
		H98.883L98.883,20.883z M105.536,22.286c1.559,0,2.573-0.932,2.699-2.689l-1.602-0.347c-0.073,1.268-0.45,1.729-1.089,1.729
		c-0.807,0-1.245-0.608-1.245-2.597s0.471-2.585,1.235-2.585c0.68,0,1.024,0.377,1.077,1.718l1.611-0.293
		c-0.042-1.822-1.057-2.723-2.68-2.723c-1.779,0-2.91,1.005-2.91,3.895C102.635,21.323,103.651,22.286,105.536,22.286
		L105.536,22.286z M114.98,14.677h-1.623v3.025h-2.113v-3.025h-1.622v7.433h1.622v-3.151h2.113v3.151h1.623V14.677L114.98,14.677z
		 M116.683,22.108h1.497v-3.873c0-0.503-0.01-1.047-0.021-1.436h0.021c0.073,0.439,0.168,0.807,0.377,1.246l1.989,4.063h1.633
		v-7.433h-1.486v3.622c0,0.502,0,0.995,0.021,1.486h-0.021c-0.084-0.513-0.188-0.858-0.365-1.235l-1.874-3.873h-1.771V22.108
		L116.683,22.108z M126.55,22.286c1.842,0,2.951-1.12,2.951-3.894c0-2.785-1.109-3.904-2.951-3.904c-1.854,0-2.963,1.12-2.963,3.904
		C123.587,21.166,124.697,22.286,126.55,22.286L126.55,22.286z M126.55,21.009c-0.816,0-1.288-0.606-1.288-2.616
		c0-2.031,0.472-2.617,1.288-2.617c0.806,0,1.266,0.586,1.266,2.617C127.816,20.402,127.356,21.009,126.55,21.009L126.55,21.009z
		 M130.91,22.108h4.062v-1.361h-2.438v-6.071h-1.623L130.91,22.108L130.91,22.108z M138.782,22.286c1.842,0,2.95-1.12,2.95-3.894
		c0-2.785-1.108-3.904-2.95-3.904c-1.854,0-2.964,1.12-2.964,3.904C135.819,21.166,136.928,22.286,138.782,22.286L138.782,22.286z
		 M138.782,21.009c-0.816,0-1.288-0.606-1.288-2.616c0-2.031,0.472-2.617,1.288-2.617c0.806,0,1.267,0.586,1.267,2.617
		C140.048,20.402,139.587,21.009,138.782,21.009L138.782,21.009z M145.412,22.286c0.951,0,1.591-0.502,1.853-1.319l0.063,1.142
		h1.183v-4.124h-2.826v1.214h1.277v0.188c0,1.017-0.366,1.645-1.13,1.645c-0.88,0-1.288-0.66-1.288-2.711
		c0-1.947,0.429-2.596,1.256-2.596c0.712,0,1.026,0.491,1.099,1.414l1.603-0.305c-0.104-1.476-1.025-2.334-2.681-2.334
		c-1.872,0-2.961,1.184-2.961,3.82C142.858,21.072,143.768,22.286,145.412,22.286L145.412,22.286z M151.74,22.108v-7.433h-1.623
		v7.433H151.74L151.74,22.108z M155.046,20.883v-1.978h2.479v-1.214h-2.479v-1.79h2.638v-1.226h-4.261v7.433h4.334v-1.226H155.046
		L155.046,20.883z M161.422,22.286c1.633,0,2.575-0.963,2.575-2.313c0-1.109-0.45-1.77-1.561-2.146l-1.067-0.355
		c-0.586-0.199-0.857-0.523-0.857-0.975c0-0.47,0.345-0.785,0.89-0.785c0.64,0,1.131,0.409,1.34,1.33l1.318-0.659
		c-0.304-1.34-1.256-1.884-2.596-1.884c-1.466,0-2.502,0.807-2.502,2.167c0,1.047,0.492,1.812,1.55,2.146l1.067,0.335
		c0.616,0.188,0.815,0.48,0.815,0.983c0,0.514-0.335,0.858-0.91,0.858c-0.754,0-1.184-0.461-1.424-1.434l-1.424,0.628
		C158.984,21.533,159.916,22.286,161.422,22.286L161.422,22.286z"/>
</g>
</svg>
