<?xml version="1.0" encoding="utf-8"?>
<!-- Generator: Adobe Illustrator 15.1.0, SVG Export Plug-In . SVG Version: 6.00 Build 0)  -->
<!DOCTYPE svg PUBLIC "-//W3C//DTD SVG 1.1//EN" "http://www.w3.org/Graphics/SVG/1.1/DTD/svg11.dtd">
<svg version="1.1" id="Layer_1" xmlns="http://www.w3.org/2000/svg" xmlns:xlink="http://www.w3.org/1999/xlink" x="0px" y="0px"
	 width="239.773px" height="67.691px" viewBox="0 0 239.773 67.691" enable-background="new 0 0 239.773 67.691"
	 xml:space="preserve">
<g>
	<polygon fill="#92278F" points="42.052,24.313 42.052,38.897 54.677,31.601 	"/>
	<path fill="#C3C5C5" d="M-0.018,63.177l18.362-10.597c-5.131-1.715-8.821-5.53-8.885-12.125V18.639h9.438v21.348
		c0.146,4.342,2.414,7.082,6.855,7.082c1.256,0,2.33-0.229,3.24-0.64l0.991-0.572c1.653-1.202,2.526-3.238,2.616-5.87V18.868h0.021
		L-0.018,0.025V63.177L-0.018,63.177z"/>
	<path fill="#92278F" d="M68.222,63.164h1.968l1.969-7.431h-1.707l-1.047,4.813c-0.095,0.472-0.146,0.795-0.178,1.131h-0.042
		c-0.031-0.335-0.084-0.659-0.178-1.131l-1.047-4.813h-1.706L68.222,63.164L68.222,63.164z M78.741,55.732h-2.689v7.431h1.622
		v-2.752h1.078c1.518,0,2.408-0.858,2.408-2.366C81.159,56.601,80.269,55.732,78.741,55.732L78.741,55.732z M78.448,59.27h-0.774
		v-2.397h0.774c0.659,0,1.005,0.376,1.005,1.172C79.453,58.851,79.097,59.27,78.448,59.27L78.448,59.27z M82.333,63.164h4.061
		v-1.359h-2.438v-6.071h-1.622L82.333,63.164L82.333,63.164z M87.392,61.981v1.182h4.825v-1.298h-2.993l2.857-4.961v-1.172h-4.564
		v1.308h2.763L87.392,61.981L87.392,61.981z M93.466,63.164h1.496v-3.873c0-0.502-0.01-1.047-0.021-1.434h0.021
		c0.073,0.438,0.168,0.806,0.377,1.245l1.989,4.061h1.633v-7.431h-1.486v3.621c0,0.503,0,0.995,0.021,1.486h-0.021
		c-0.084-0.513-0.188-0.858-0.366-1.234l-1.874-3.873h-1.769V63.164L93.466,63.164z M102.28,63.164v-7.431h-1.622v7.431H102.28
		L102.28,63.164z"/>
	<path fill="#92278F" d="M66.505,48.293v1.184h4.826v-1.299h-2.994l2.856-4.961v-1.172H66.63v1.309h2.764L66.505,48.293
		L66.505,48.293z M77.113,40.391H75.68l-0.953,1.203h1.246L77.113,40.391L77.113,40.391z M76.8,49.476h1.633l-2.083-7.433h-1.978
		l-2.094,7.433h1.634l0.419-1.729h2.051L76.8,49.476L76.8,49.476z M74.612,46.587l0.523-2.188c0.083-0.345,0.157-0.639,0.209-1.068
		h0.021c0.063,0.43,0.136,0.724,0.209,1.068l0.522,2.188H74.612L74.612,46.587z M82.312,42.044h-2.689v7.433h1.623v-2.752h1.078
		c1.518,0,2.407-0.859,2.407-2.366C84.729,42.914,83.839,42.044,82.312,42.044L82.312,42.044z M82.019,45.582h-0.774v-2.396h0.774
		c0.659,0,1.004,0.376,1.004,1.172C83.023,45.164,82.667,45.582,82.019,45.582L82.019,45.582z M89.528,49.476h1.634l-2.082-7.433
		H87.1l-2.094,7.433h1.633l0.419-1.729h2.052L89.528,49.476L89.528,49.476z M87.341,46.587l0.522-2.188
		c0.083-0.345,0.157-0.639,0.21-1.068h0.021c0.063,0.43,0.136,0.724,0.21,1.068l0.522,2.188H87.341L87.341,46.587z M92.35,49.476
		h2.396c1.937,0,3.131-1.088,3.131-3.728c0-2.605-1.185-3.705-3.109-3.705H92.35V49.476L92.35,49.476z M93.972,48.293v-5.065h0.785
		c0.974,0,1.434,0.67,1.434,2.521c0,1.633-0.49,2.543-1.443,2.543L93.972,48.293L93.972,48.293z M101.94,49.654
		c1.843,0,2.951-1.12,2.951-3.895c0-2.783-1.108-3.903-2.951-3.903c-1.853,0-2.962,1.12-2.962,3.903
		C98.978,48.534,100.087,49.654,101.94,49.654L101.94,49.654z M101.94,48.377c-0.815,0-1.287-0.607-1.287-2.617
		c0-2.029,0.472-2.616,1.287-2.616c0.808,0,1.268,0.587,1.268,2.616C103.207,47.77,102.747,48.377,101.94,48.377L101.94,48.377z
		 M110.715,40.443h-1.214l-0.607,0.743l-0.617-0.743h-1.214l0.994,1.204h1.664L110.715,40.443L110.715,40.443z M108.916,49.654
		c1.56,0,2.574-0.931,2.7-2.69l-1.603-0.345c-0.073,1.267-0.45,1.728-1.088,1.728c-0.807,0-1.246-0.607-1.246-2.597
		c0-1.987,0.471-2.585,1.235-2.585c0.68,0,1.024,0.376,1.078,1.716l1.61-0.293c-0.042-1.82-1.057-2.721-2.679-2.721
		c-1.78,0-2.91,1.004-2.91,3.894C106.016,48.691,107.031,49.654,108.916,49.654L108.916,49.654z M114.623,48.251v-1.979h2.48v-1.214
		h-2.48v-1.79h2.638v-1.226H113v7.433h4.333V48.25L114.623,48.251L114.623,48.251z M121,49.654c1.633,0,2.575-0.963,2.575-2.313
		c0-1.108-0.451-1.769-1.562-2.146l-1.067-0.355c-0.586-0.198-0.857-0.522-0.857-0.974c0-0.471,0.346-0.785,0.89-0.785
		c0.64,0,1.131,0.408,1.34,1.33l1.319-0.66c-0.304-1.34-1.256-1.884-2.596-1.884c-1.466,0-2.502,0.806-2.502,2.167
		c0,1.047,0.492,1.812,1.549,2.146l1.068,0.334c0.616,0.188,0.815,0.481,0.815,0.983c0,0.513-0.335,0.859-0.911,0.859
		c-0.754,0-1.183-0.461-1.423-1.436l-1.425,0.628C118.561,48.901,119.492,49.654,121,49.654L121,49.654z M128.652,49.476h1.801
		l-2.072-4.449l1.979-2.983h-1.778l-2.041,3.36v-3.36h-1.623v7.433h1.623V47.31l0.712-1.1L128.652,49.476L128.652,49.476z
		 M135.503,40.391h-1.435l-0.952,1.203h1.245L135.503,40.391L135.503,40.391z M133.253,48.251v-1.979h2.479v-1.214h-2.479v-1.79
		h2.638v-1.226h-4.261v7.433h4.333V48.25L133.253,48.251L133.253,48.251z M140.087,42.044v5.224c0,1.465,0.974,2.386,2.647,2.386
		c1.687,0,2.648-0.921,2.648-2.386v-5.224h-1.612v5.149c0,0.702-0.387,1.12-1.036,1.12c-0.648,0-1.024-0.418-1.024-1.12v-5.149
		H140.087L140.087,42.044z M147.027,49.476h1.498v-3.873c0-0.502-0.011-1.046-0.021-1.435h0.021c0.072,0.44,0.167,0.807,0.376,1.246
		l1.989,4.063h1.633v-7.433h-1.485v3.622c0,0.502,0,0.994,0.021,1.486h-0.021c-0.084-0.513-0.188-0.858-0.366-1.235l-1.874-3.873
		h-1.771V49.476L147.027,49.476z M155.84,49.476v-7.433h-1.622v7.433H155.84L155.84,49.476z M158.929,49.476h1.968l1.969-7.433
		h-1.706l-1.048,4.814c-0.094,0.472-0.146,0.796-0.177,1.13h-0.043c-0.031-0.334-0.083-0.659-0.178-1.13l-1.046-4.814h-1.707
		L158.929,49.476L158.929,49.476z M165.621,48.251v-1.979h2.479v-1.214h-2.479v-1.79h2.637v-1.226h-4.26v7.433h4.334V48.25
		L165.621,48.251L165.621,48.251z M173.293,49.476h1.736l-1.34-3.234c0.766-0.304,1.193-0.995,1.193-1.968
		c0-1.371-0.754-2.229-2.48-2.229h-2.647v7.433h1.623v-2.941h0.815L173.293,49.476L173.293,49.476z M171.378,45.478v-2.313h0.784
		c0.723,0,1.016,0.376,1.016,1.109c0,0.753-0.304,1.204-1.016,1.204H171.378L171.378,45.478z M176.076,48.293v1.184h4.824v-1.299
		h-2.992l2.855-4.961v-1.172h-4.563v1.309h2.763L176.076,48.293L176.076,48.293z M183.767,49.476v-7.433h-1.623v7.433H183.767
		L183.767,49.476z M190.095,42.044h-5.202v1.329h1.79v6.104h1.622v-6.104h1.79V42.044L190.095,42.044z M192.939,49.476h1.633v-2.681
		l2.021-4.752h-1.707l-0.952,2.606c-0.084,0.262-0.125,0.492-0.157,0.764h-0.03c-0.031-0.271-0.083-0.502-0.157-0.764l-0.973-2.606
		h-1.707l2.03,4.752L192.939,49.476L192.939,49.476z"/>
	<path fill="#92278F" d="M68.222,35.788h1.968l1.969-7.432h-1.707l-1.047,4.814c-0.095,0.472-0.146,0.795-0.178,1.13h-0.042
		c-0.031-0.335-0.084-0.658-0.178-1.13l-1.047-4.814h-1.706L68.222,35.788L68.222,35.788z M75.189,27.906h1.246l1.142-1.204h-1.436
		L75.189,27.906L75.189,27.906z M75.001,35.788h1.633v-2.68l2.021-4.752h-1.706l-0.952,2.605c-0.083,0.263-0.126,0.492-0.157,0.765
		h-0.032c-0.031-0.272-0.083-0.502-0.156-0.765l-0.974-2.605h-1.706l2.03,4.752V35.788L75.001,35.788z M79.516,34.605v1.183h4.826
		V34.49h-2.994l2.858-4.961v-1.172h-4.564v1.309h2.763L79.516,34.605L79.516,34.605z M89.328,35.788h1.8l-2.072-4.448l1.979-2.982
		h-1.779l-2.042,3.359v-3.359H85.59v7.432h1.623v-2.167l0.712-1.099L89.328,35.788L89.328,35.788z M92.211,28.356v5.223
		c0,1.466,0.974,2.387,2.647,2.387c1.687,0,2.648-0.921,2.648-2.387v-5.223h-1.611v5.149c0,0.701-0.388,1.12-1.037,1.12
		c-0.647,0-1.024-0.419-1.024-1.12v-5.149H92.211L92.211,28.356z M99.152,35.788h1.383v-4.407c0-0.449,0-0.993-0.031-1.413h0.041
		c0.011,0.199,0.073,0.565,0.146,0.9l1.173,4.919h1.287l1.142-4.919c0.063-0.335,0.114-0.628,0.146-0.911h0.031
		c-0.021,0.439-0.031,0.984-0.031,1.423v4.407h1.444v-7.432h-2.22l-0.963,4.196c-0.084,0.378-0.137,0.733-0.157,1.006h-0.031
		c-0.021-0.272-0.073-0.617-0.157-0.995l-0.982-4.208h-2.22V35.788L99.152,35.788z M107.586,35.788h1.496v-3.873
		c0-0.503-0.012-1.047-0.021-1.434h0.021c0.072,0.438,0.168,0.806,0.377,1.245l1.987,4.062h1.635v-7.432h-1.486v3.622
		c0,0.502,0,0.995,0.021,1.486h-0.021c-0.084-0.513-0.188-0.857-0.367-1.234l-1.873-3.873h-1.769V35.788L107.586,35.788z
		 M118.653,26.703h-1.435l-0.952,1.204h1.246L118.653,26.703L118.653,26.703z M116.403,34.564v-1.979h2.48v-1.214h-2.48v-1.79h2.638
		v-1.225h-4.261v7.432h4.333v-1.224H116.403L116.403,34.564z M125.885,35.966c1.56,0,2.575-0.932,2.7-2.689l-1.603-0.346
		c-0.071,1.267-0.449,1.727-1.088,1.727c-0.807,0-1.246-0.607-1.246-2.596c0-1.989,0.473-2.585,1.235-2.585
		c0.68,0,1.026,0.377,1.078,1.716l1.612-0.293c-0.043-1.821-1.059-2.723-2.681-2.723c-1.778,0-2.91,1.006-2.91,3.896
		C122.986,35.003,124.001,35.966,125.885,35.966L125.885,35.966z M131.592,34.564v-1.979h2.481v-1.214h-2.481v-1.79h2.639v-1.225
		h-4.261v7.432h4.334v-1.224H131.592L131.592,34.564z M135.728,35.788h1.497v-3.873c0-0.503-0.011-1.047-0.021-1.434h0.021
		c0.073,0.438,0.167,0.806,0.377,1.245l1.988,4.062h1.633v-7.432h-1.486v3.622c0,0.502,0,0.995,0.021,1.486h-0.021
		c-0.083-0.513-0.188-0.857-0.365-1.234l-1.873-3.873h-1.771V35.788L135.728,35.788z M147.563,28.356h-5.201v1.33h1.789v6.102h1.622
		v-6.102h1.79V28.356L147.563,28.356z M152.233,35.788h1.737l-1.34-3.233c0.765-0.305,1.193-0.994,1.193-1.969
		c0-1.371-0.755-2.229-2.48-2.229h-2.648v7.432h1.622v-2.94h0.816L152.233,35.788L152.233,35.788z M150.317,31.79v-2.313h0.785
		c0.724,0,1.017,0.377,1.017,1.108c0,0.754-0.305,1.204-1.017,1.204H150.317L150.317,31.79z M155.13,28.356v5.223
		c0,1.466,0.973,2.387,2.646,2.387c1.687,0,2.648-0.921,2.648-2.387v-5.223h-1.612v5.149c0,0.701-0.387,1.12-1.036,1.12
		c-0.647,0-1.024-0.419-1.024-1.12v-5.149H155.13L155.13,28.356z M162.07,35.788h1.382v-4.407c0-0.449,0-0.993-0.031-1.413h0.042
		c0.011,0.199,0.073,0.565,0.146,0.9l1.174,4.919h1.286l1.143-4.919c0.063-0.335,0.114-0.628,0.146-0.911h0.032
		c-0.021,0.439-0.032,0.984-0.032,1.423v4.407h1.445v-7.432h-2.22l-0.963,4.196c-0.083,0.378-0.137,0.733-0.157,1.006h-0.031
		c-0.021-0.272-0.073-0.617-0.156-0.995l-0.983-4.208h-2.22L162.07,35.788L162.07,35.788z"/>
	<path fill="#92278F" d="M66.881,22.101h1.498v-3.873c0-0.503-0.011-1.047-0.021-1.436h0.021c0.073,0.439,0.167,0.807,0.376,1.246
		l1.989,4.063h1.633v-7.433h-1.486v3.622c0,0.502,0,0.995,0.021,1.486h-0.021c-0.083-0.513-0.188-0.858-0.366-1.235l-1.874-3.873
		h-1.77V22.101L66.881,22.101z M76.748,22.278c1.842,0,2.952-1.12,2.952-3.895c0-2.784-1.109-3.903-2.952-3.903
		c-1.854,0-2.962,1.12-2.962,3.903C73.786,21.158,74.896,22.278,76.748,22.278L76.748,22.278z M76.748,21.001
		c-0.817,0-1.288-0.606-1.288-2.617c0-2.03,0.471-2.616,1.288-2.616c0.806,0,1.267,0.586,1.267,2.616
		C78.015,20.395,77.554,21.001,76.748,21.001L76.748,21.001z M82.294,22.101h1.968l1.968-7.433h-1.707l-1.046,4.814
		c-0.095,0.471-0.146,0.795-0.178,1.13h-0.042c-0.031-0.335-0.084-0.659-0.178-1.13l-1.046-4.814h-1.706L82.294,22.101
		L82.294,22.101z M91.235,13.015h-1.434l-0.953,1.203h1.246L91.235,13.015L91.235,13.015z M88.985,20.875v-1.978h2.48v-1.214h-2.48
		v-1.79h2.639v-1.226h-4.261V22.1h4.333v-1.226H88.985L88.985,20.875z M100.499,14.669h-5.202v1.329h1.79v6.104h1.622v-6.104h1.79
		V14.669L100.499,14.669z M103.252,20.875v-1.978h2.479v-1.214h-2.479v-1.79h2.638v-1.226h-4.26V22.1h4.333v-1.226H103.252
		L103.252,20.875z M109.904,22.278c1.562,0,2.575-0.932,2.701-2.69l-1.602-0.346c-0.073,1.267-0.45,1.728-1.089,1.728
		c-0.807,0-1.246-0.607-1.246-2.596c0-1.989,0.472-2.585,1.234-2.585c0.682,0,1.026,0.377,1.078,1.717l1.612-0.293
		c-0.042-1.821-1.058-2.722-2.68-2.722c-1.779,0-2.91,1.005-2.91,3.894C107.004,21.315,108.02,22.278,109.904,22.278L109.904,22.278
		z M119.348,14.669h-1.622v3.025h-2.114v-3.025h-1.623v7.433h1.623V18.95h2.114v3.151h1.622V14.669L119.348,14.669z M121.052,22.101
		h1.497v-3.873c0-0.503-0.011-1.047-0.021-1.436h0.021c0.073,0.439,0.168,0.807,0.377,1.246l1.988,4.063h1.633v-7.433h-1.486v3.622
		c0,0.502,0,0.995,0.021,1.486h-0.021c-0.083-0.513-0.188-0.858-0.366-1.235l-1.873-3.873h-1.77V22.101L121.052,22.101z
		 M130.918,22.278c1.842,0,2.951-1.12,2.951-3.895c0-2.784-1.109-3.903-2.951-3.903c-1.854,0-2.962,1.12-2.962,3.903
		C127.957,21.158,129.066,22.278,130.918,22.278L130.918,22.278z M130.918,21.001c-0.816,0-1.287-0.606-1.287-2.617
		c0-2.03,0.471-2.616,1.287-2.616c0.807,0,1.267,0.586,1.267,2.616C132.185,20.395,131.725,21.001,130.918,21.001L130.918,21.001z
		 M135.28,22.101h4.062V20.74h-2.438v-6.071h-1.621v7.433H135.28z M143.15,22.278c1.844,0,2.952-1.12,2.952-3.895
		c0-2.784-1.108-3.903-2.952-3.903c-1.852,0-2.962,1.12-2.962,3.903C140.188,21.158,141.298,22.278,143.15,22.278L143.15,22.278z
		 M143.15,21.001c-0.815,0-1.287-0.606-1.287-2.617c0-2.03,0.472-2.616,1.287-2.616c0.808,0,1.268,0.586,1.268,2.616
		C144.417,20.395,143.957,21.001,143.15,21.001L143.15,21.001z M149.78,22.278c0.953,0,1.593-0.502,1.854-1.319l0.063,1.142h1.184
		v-4.124h-2.826v1.214h1.277v0.188c0,1.017-0.367,1.645-1.131,1.645c-0.88,0-1.287-0.66-1.287-2.711
		c0-1.947,0.429-2.597,1.256-2.597c0.712,0,1.024,0.492,1.1,1.414l1.602-0.304c-0.104-1.476-1.025-2.334-2.68-2.334
		c-1.874,0-2.963,1.183-2.963,3.82C147.226,21.064,148.137,22.278,149.78,22.278L149.78,22.278z M156.109,22.101v-7.433h-1.623
		v7.433H156.109L156.109,22.101z M159.415,20.875v-1.978h2.48v-1.214h-2.48v-1.79h2.639v-1.226h-4.261V22.1h4.334v-1.226H159.415
		L159.415,20.875z"/>
</g>
</svg>
